<?xml version="1.0" encoding="UTF-8" standalone="no"?>
<svg width="194.381mm" height="243.417mm"
 xmlns="http://www.w3.org/2000/svg" xmlns:xlink="http://www.w3.org/1999/xlink"  version="1.2" baseProfile="tiny">
<title>Qt SVG Document</title>
<desc>Generated with Qt</desc>
<defs>
</defs>
<g fill="none" stroke="black" stroke-width="1" fill-rule="evenodd" stroke-linecap="square" stroke-linejoin="bevel" >

<g fill="#ffffff" fill-opacity="1" stroke="#000000" stroke-opacity="1" stroke-width="1" stroke-linecap="square" stroke-linejoin="bevel" transform="matrix(1,0,0,1,0,0)"
font-family="MS UI Gothic" font-size="9" font-weight="400" font-style="normal" 
>
<rect x="0" y="0" width="551" height="690"/>
</g>

<g fill="none" stroke="#000000" stroke-opacity="1" stroke-width="1" stroke-linecap="square" stroke-linejoin="bevel" transform="matrix(1,0,0,1,0,0)"
font-family="MS UI Gothic" font-size="9" font-weight="400" font-style="normal" 
>
</g>

<g fill="#000000" fill-opacity="1" stroke="none" transform="matrix(1,0,0,1,0,0)"
font-family="MS UI Gothic" font-size="9" font-weight="400" font-style="normal" 
>
<rect x="19.5" y="19.5" width="1" height="1"/>
</g>

<g fill="none" stroke="#000000" stroke-opacity="1" stroke-width="1" stroke-linecap="square" stroke-linejoin="bevel" transform="matrix(1,0,0,1,0,0)"
font-family="MS UI Gothic" font-size="9" font-weight="400" font-style="normal" 
>
</g>

<g fill="#000000" fill-opacity="1" stroke="none" transform="matrix(1,0,0,1,0,0)"
font-family="MS UI Gothic" font-size="9" font-weight="400" font-style="normal" 
>
<path vector-effect="none" fill-rule="evenodd" d="M290.551,60.1319 L230.419,0 L270.507,0 L290.551,20.044 L290.551,60.1319"/>
</g>

<g fill="#000000" fill-opacity="1" stroke="none" transform="matrix(1,0,0,1,0,0)"
font-family="MS UI Gothic" font-size="9" font-weight="400" font-style="normal" 
>
<path vector-effect="none" fill-rule="evenodd" d="M350.079,60.1319 L350.079,20.044 L370.123,0 L410.211,0 L350.079,60.1319"/>
</g>

<g fill="#000000" fill-opacity="1" stroke="none" transform="matrix(1,0,0,1,0,0)"
font-family="MS UI Gothic" font-size="9" font-weight="400" font-style="normal" 
>
<path vector-effect="none" fill-rule="evenodd" d="M270.507,660.472 L230.419,660.472 L290.551,600.341 L290.551,640.428 L270.507,660.472"/>
</g>

<g fill="#000000" fill-opacity="1" stroke="none" transform="matrix(1,0,0,1,0,0)"
font-family="MS UI Gothic" font-size="9" font-weight="400" font-style="normal" 
>
<path vector-effect="none" fill-rule="evenodd" d="M-171.496,60.1319 L-171.496,20.044 L-151.452,0 L-111.364,0 L-171.496,60.1319"/>
</g>

<g fill="#000000" fill-opacity="1" stroke="none" transform="matrix(1,0,0,1,0,0)"
font-family="MS UI Gothic" font-size="9" font-weight="400" font-style="normal" 
>
<path vector-effect="none" fill-rule="evenodd" d="M350.079,60.1319 L290.551,60.1319 L290.551,20.044 L350.079,20.044 L350.079,60.1319"/>
</g>

<g fill="#000000" fill-opacity="1" stroke="none" transform="matrix(1,0,0,1,0,0)"
font-family="MS UI Gothic" font-size="9" font-weight="400" font-style="normal" 
>
<path vector-effect="none" fill-rule="evenodd" d="M410.211,0 L370.123,0 L370.123,-59.5276 L410.211,-59.5276 L410.211,0"/>
</g>

<g fill="#000000" fill-opacity="1" stroke="none" transform="matrix(1,0,0,1,0,0)"
font-family="MS UI Gothic" font-size="9" font-weight="400" font-style="normal" 
>
<path vector-effect="none" fill-rule="evenodd" d="M290.551,100.22 L290.551,140.308 L150.243,0 L190.331,0 L290.551,100.22"/>
</g>

<g fill="#000000" fill-opacity="1" stroke="none" transform="matrix(1,0,0,1,0,0)"
font-family="MS UI Gothic" font-size="9" font-weight="400" font-style="normal" 
>
<path vector-effect="none" fill-rule="evenodd" d="M350.079,140.308 L350.079,100.22 L450.299,0 L490.387,0 L350.079,140.308"/>
</g>

<g fill="#000000" fill-opacity="1" stroke="none" transform="matrix(1,0,0,1,0,0)"
font-family="MS UI Gothic" font-size="9" font-weight="400" font-style="normal" 
>
<path vector-effect="none" fill-rule="evenodd" d="M190.331,660.472 L150.243,660.472 L290.551,520.165 L290.551,560.253 L190.331,660.472"/>
</g>

<g fill="#000000" fill-opacity="1" stroke="none" transform="matrix(1,0,0,1,0,0)"
font-family="MS UI Gothic" font-size="9" font-weight="400" font-style="normal" 
>
<path vector-effect="none" fill-rule="evenodd" d="M-171.496,140.308 L-171.496,100.22 L-71.2762,0 L-31.1883,0 L-171.496,140.308"/>
</g>

<g fill="#000000" fill-opacity="1" stroke="none" transform="matrix(1,0,0,1,0,0)"
font-family="MS UI Gothic" font-size="9" font-weight="400" font-style="normal" 
>
<path vector-effect="none" fill-rule="evenodd" d="M350.079,140.308 L290.551,140.308 L290.551,100.22 L350.079,100.22 L350.079,140.308"/>
</g>

<g fill="#000000" fill-opacity="1" stroke="none" transform="matrix(1,0,0,1,0,0)"
font-family="MS UI Gothic" font-size="9" font-weight="400" font-style="normal" 
>
<path vector-effect="none" fill-rule="evenodd" d="M490.387,0 L450.299,0 L450.299,-59.5276 L490.387,-59.5276 L490.387,0"/>
</g>

<g fill="#000000" fill-opacity="1" stroke="none" transform="matrix(1,0,0,1,0,0)"
font-family="MS UI Gothic" font-size="9" font-weight="400" font-style="normal" 
>
<path vector-effect="none" fill-rule="evenodd" d="M290.551,180.396 L290.551,220.484 L89.2913,19.2238 L89.2913,0 L110.155,0 L290.551,180.396"/>
</g>

<g fill="#000000" fill-opacity="1" stroke="none" transform="matrix(1,0,0,1,0,0)"
font-family="MS UI Gothic" font-size="9" font-weight="400" font-style="normal" 
>
<path vector-effect="none" fill-rule="evenodd" d="M350.079,220.484 L350.079,180.396 L530.474,0 L551.339,0 L551.339,19.2238 L350.079,220.484"/>
</g>

<g fill="#000000" fill-opacity="1" stroke="none" transform="matrix(1,0,0,1,0,0)"
font-family="MS UI Gothic" font-size="9" font-weight="400" font-style="normal" 
>
<path vector-effect="none" fill-rule="evenodd" d="M110.155,660.472 L89.2913,660.472 L89.2913,641.249 L290.551,439.989 L290.551,480.077 L110.155,660.472"/>
</g>

<g fill="#000000" fill-opacity="1" stroke="none" transform="matrix(1,0,0,1,0,0)"
font-family="MS UI Gothic" font-size="9" font-weight="400" font-style="normal" 
>
<path vector-effect="none" fill-rule="evenodd" d="M-171.496,220.484 L-171.496,180.396 L8.89968,0 L29.7638,0 L29.7638,19.2238 L-171.496,220.484"/>
</g>

<g fill="#000000" fill-opacity="1" stroke="none" transform="matrix(1,0,0,1,0,0)"
font-family="MS UI Gothic" font-size="9" font-weight="400" font-style="normal" 
>
<path vector-effect="none" fill-rule="evenodd" d="M350.079,220.484 L290.551,220.484 L290.551,180.396 L350.079,180.396 L350.079,220.484"/>
</g>

<g fill="#000000" fill-opacity="1" stroke="none" transform="matrix(1,0,0,1,0,0)"
font-family="MS UI Gothic" font-size="9" font-weight="400" font-style="normal" 
>
<path vector-effect="none" fill-rule="evenodd" d="M551.339,0 L530.474,0 L530.474,-59.5276 L551.339,-59.5276 L551.339,0"/>
</g>

<g fill="#000000" fill-opacity="1" stroke="none" transform="matrix(1,0,0,1,0,0)"
font-family="MS UI Gothic" font-size="9" font-weight="400" font-style="normal" 
>
<path vector-effect="none" fill-rule="evenodd" d="M89.2913,19.2238 L29.7638,19.2238 L29.7638,0 L89.2913,0 L89.2913,19.2238"/>
</g>

<g fill="#000000" fill-opacity="1" stroke="none" transform="matrix(1,0,0,1,0,0)"
font-family="MS UI Gothic" font-size="9" font-weight="400" font-style="normal" 
>
<path vector-effect="none" fill-rule="evenodd" d="M290.551,260.572 L290.551,300.472 L290.364,300.472 L89.2913,99.3997 L89.2913,59.3118 L290.551,260.572"/>
</g>

<g fill="#000000" fill-opacity="1" stroke="none" transform="matrix(1,0,0,1,0,0)"
font-family="MS UI Gothic" font-size="9" font-weight="400" font-style="normal" 
>
<path vector-effect="none" fill-rule="evenodd" d="M350.266,300.472 L350.079,300.472 L350.079,260.572 L551.339,59.3118 L551.339,99.3997 L350.266,300.472"/>
</g>

<g fill="#000000" fill-opacity="1" stroke="none" transform="matrix(1,0,0,1,0,0)"
font-family="MS UI Gothic" font-size="9" font-weight="400" font-style="normal" 
>
<path vector-effect="none" fill-rule="evenodd" d="M89.2913,601.161 L89.2913,561.073 L290.364,360 L290.551,360 L290.551,399.901 L89.2913,601.161"/>
</g>

<g fill="#000000" fill-opacity="1" stroke="none" transform="matrix(1,0,0,1,0,0)"
font-family="MS UI Gothic" font-size="9" font-weight="400" font-style="normal" 
>
<path vector-effect="none" fill-rule="evenodd" d="M-171.309,300.472 L-171.496,300.472 L-171.496,260.572 L29.7638,59.3118 L29.7638,99.3997 L-171.309,300.472"/>
</g>

<g fill="#000000" fill-opacity="1" stroke="none" transform="matrix(1,0,0,1,0,0)"
font-family="MS UI Gothic" font-size="9" font-weight="400" font-style="normal" 
>
<path vector-effect="none" fill-rule="evenodd" d="M350.079,300.472 L290.551,300.472 L290.551,260.572 L350.079,260.572 L350.079,300.472"/>
</g>

<g fill="#000000" fill-opacity="1" stroke="none" transform="matrix(1,0,0,1,0,0)"
font-family="MS UI Gothic" font-size="9" font-weight="400" font-style="normal" 
>
<path vector-effect="none" fill-rule="evenodd" d="M89.2913,99.3997 L29.7638,99.3997 L29.7638,59.3118 L89.2913,59.3118 L89.2913,99.3997"/>
</g>

<g fill="#000000" fill-opacity="1" stroke="none" transform="matrix(1,0,0,1,0,0)"
font-family="MS UI Gothic" font-size="9" font-weight="400" font-style="normal" 
>
<path vector-effect="none" fill-rule="evenodd" d="M290.551,360 L290.364,360 L290.364,300.472 L290.551,300.472 L290.551,360"/>
</g>

<g fill="#000000" fill-opacity="1" stroke="none" transform="matrix(1,0,0,1,0,0)"
font-family="MS UI Gothic" font-size="9" font-weight="400" font-style="normal" 
>
<path vector-effect="none" fill-rule="evenodd" d="M250.276,300.472 L210.188,300.472 L89.2913,179.576 L89.2913,139.488 L250.276,300.472"/>
</g>

<g fill="#000000" fill-opacity="1" stroke="none" transform="matrix(1,0,0,1,0,0)"
font-family="MS UI Gothic" font-size="9" font-weight="400" font-style="normal" 
>
<path vector-effect="none" fill-rule="evenodd" d="M430.442,300.472 L390.354,300.472 L551.339,139.488 L551.339,179.576 L430.442,300.472"/>
</g>

<g fill="#000000" fill-opacity="1" stroke="none" transform="matrix(1,0,0,1,0,0)"
font-family="MS UI Gothic" font-size="9" font-weight="400" font-style="normal" 
>
<path vector-effect="none" fill-rule="evenodd" d="M89.2913,520.985 L89.2913,480.897 L210.188,360 L250.276,360 L89.2913,520.985"/>
</g>

<g fill="#000000" fill-opacity="1" stroke="none" transform="matrix(1,0,0,1,0,0)"
font-family="MS UI Gothic" font-size="9" font-weight="400" font-style="normal" 
>
<path vector-effect="none" fill-rule="evenodd" d="M-91.133,300.472 L-131.221,300.472 L29.7638,139.488 L29.7638,179.576 L-91.133,300.472"/>
</g>

<g fill="#000000" fill-opacity="1" stroke="none" transform="matrix(1,0,0,1,0,0)"
font-family="MS UI Gothic" font-size="9" font-weight="400" font-style="normal" 
>
<path vector-effect="none" fill-rule="evenodd" d="M89.2913,179.576 L29.7638,179.576 L29.7638,139.488 L89.2913,139.488 L89.2913,179.576"/>
</g>

<g fill="#000000" fill-opacity="1" stroke="none" transform="matrix(1,0,0,1,0,0)"
font-family="MS UI Gothic" font-size="9" font-weight="400" font-style="normal" 
>
<path vector-effect="none" fill-rule="evenodd" d="M250.276,360 L210.188,360 L210.188,300.472 L250.276,300.472 L250.276,360"/>
</g>

<g fill="#000000" fill-opacity="1" stroke="none" transform="matrix(1,0,0,1,0,0)"
font-family="MS UI Gothic" font-size="9" font-weight="400" font-style="normal" 
>
<path vector-effect="none" fill-rule="evenodd" d="M170.1,300.472 L130.012,300.472 L89.2913,259.752 L89.2913,219.664 L170.1,300.472"/>
</g>

<g fill="#000000" fill-opacity="1" stroke="none" transform="matrix(1,0,0,1,0,0)"
font-family="MS UI Gothic" font-size="9" font-weight="400" font-style="normal" 
>
<path vector-effect="none" fill-rule="evenodd" d="M510.618,300.472 L470.53,300.472 L551.339,219.664 L551.339,259.752 L510.618,300.472"/>
</g>

<g fill="#000000" fill-opacity="1" stroke="none" transform="matrix(1,0,0,1,0,0)"
font-family="MS UI Gothic" font-size="9" font-weight="400" font-style="normal" 
>
<path vector-effect="none" fill-rule="evenodd" d="M89.2913,440.809 L89.2913,400.721 L130.012,360 L170.1,360 L89.2913,440.809"/>
</g>

<g fill="#000000" fill-opacity="1" stroke="none" transform="matrix(1,0,0,1,0,0)"
font-family="MS UI Gothic" font-size="9" font-weight="400" font-style="normal" 
>
<path vector-effect="none" fill-rule="evenodd" d="M-10.9572,300.472 L-51.0451,300.472 L29.7638,219.664 L29.7638,259.752 L-10.9572,300.472"/>
</g>

<g fill="#000000" fill-opacity="1" stroke="none" transform="matrix(1,0,0,1,0,0)"
font-family="MS UI Gothic" font-size="9" font-weight="400" font-style="normal" 
>
<path vector-effect="none" fill-rule="evenodd" d="M89.2913,259.752 L29.7638,259.752 L29.7638,219.664 L89.2913,219.664 L89.2913,259.752"/>
</g>

<g fill="#000000" fill-opacity="1" stroke="none" transform="matrix(1,0,0,1,0,0)"
font-family="MS UI Gothic" font-size="9" font-weight="400" font-style="normal" 
>
<path vector-effect="none" fill-rule="evenodd" d="M170.1,360 L130.012,360 L130.012,300.472 L170.1,300.472 L170.1,360"/>
</g>

<g fill="#000000" fill-opacity="1" stroke="none" transform="matrix(1,0,0,1,0,0)"
font-family="MS UI Gothic" font-size="9" font-weight="400" font-style="normal" 
>
<path vector-effect="none" fill-rule="evenodd" d="M-10.9572,360 L-51.0451,360 L-51.0451,300.472 L-10.9572,300.472 L-10.9572,360"/>
</g>

<g fill="none" stroke="#90ee90" stroke-opacity="1" stroke-width="1" stroke-linecap="square" stroke-linejoin="bevel" transform="matrix(1,0,0,1,0,0)"
font-family="MS UI Gothic" font-size="9" font-weight="400" font-style="normal" 
>
<rect x="0" y="0" width="551" height="690"/>
</g>
</g>
</svg>
